<?xml version="1.0" standalone="no"?>
<!DOCTYPE svg PUBLIC "-//W3C//DTD SVG 20010904//EN"
 "http://www.w3.org/TR/2001/REC-SVG-20010904/DTD/svg10.dtd">
<svg version="1.0" xmlns="http://www.w3.org/2000/svg"
 width="179.000000pt" height="186.000000pt" viewBox="0 0 179.000000 186.000000"
 preserveAspectRatio="xMidYMid meet">

<g transform="translate(0.000000,186.000000) scale(0.100000,-0.100000)"
fill="#000000" stroke="none">
<path d="M744 1781 c-129 -21 -245 -72 -362 -161 -154 -116 -258 -268 -318
-465 -15 -48 -19 -93 -18 -220 0 -180 11 -237 72 -363 126 -264 340 -429 626
-482 101 -19 289 -8 393 23 280 83 506 322 575 607 30 126 32 310 4 420 -50
200 -176 380 -346 495 -160 107 -269 144 -455 150 -66 2 -143 0 -171 -4z m341
-111 c237 -74 420 -239 513 -462 42 -100 56 -190 49 -312 -18 -326 -242 -608
-554 -698 -62 -18 -103 -23 -203 -23 -142 0 -213 16 -325 70 -255 124 -418
372 -432 660 -5 92 -2 125 16 195 61 240 203 418 416 521 55 26 132 55 170 63
97 22 257 15 350 -14z"/>
<path d="M745 1625 c-71 -16 -171 -55 -223 -86 -53 -33 -187 -165 -222 -220
-89 -138 -127 -328 -100 -494 17 -107 34 -129 80 -105 17 9 17 14 5 62 -44
178 -20 337 74 480 123 188 321 303 521 301 111 -1 165 -14 279 -69 76 -37
109 -61 170 -123 88 -88 153 -200 170 -295 15 -80 14 -207 -3 -284 l-13 -63
30 -16 c25 -12 31 -13 38 -1 18 29 39 151 39 230 0 112 -21 193 -80 314 -43
88 -59 110 -133 181 -99 93 -146 123 -248 157 -143 47 -266 57 -384 31z"/>
<path d="M736 1480 c-55 -22 -134 -93 -170 -155 -19 -31 -35 -44 -74 -58 -93
-32 -151 -133 -136 -233 7 -49 56 -121 96 -143 26 -13 48 -66 48 -112 0 -13
-11 -42 -24 -64 -22 -36 -23 -42 -10 -67 18 -34 34 -35 61 -5 42 45 56 87 50
149 -4 47 -2 58 9 58 8 0 22 -16 30 -36 8 -19 28 -43 45 -52 32 -18 32 -17 4
-118 -8 -28 -31 -75 -51 -104 -41 -60 -43 -56 51 -100 102 -48 240 -74 332
-63 l52 6 3 121 3 121 80 3 c105 4 137 32 104 94 -7 13 -8 23 -1 27 5 3 14 31
18 61 9 55 9 55 47 58 25 2 37 8 37 18 0 16 -68 247 -94 321 -11 32 -12 49 -4
76 17 56 5 80 -66 126 l-64 42 -94 -94 c-92 -91 -161 -137 -206 -137 -12 0
-22 3 -22 6 0 20 29 50 78 81 31 20 68 45 81 57 26 23 71 90 71 105 0 8 -59
31 -82 31 -3 0 -16 -21 -29 -46 -17 -36 -32 -51 -68 -68 -85 -40 -100 -55
-145 -150 -65 -136 -111 -166 -81 -53 26 100 64 167 113 198 25 16 60 33 79
40 18 6 33 11 33 12 0 1 4 17 9 35 10 32 10 32 -27 32 -20 -1 -59 -10 -86 -20z
m367 -225 c-46 -94 -164 -175 -255 -175 -18 0 -41 -9 -54 -21 -20 -18 -76 -38
-111 -39 -7 0 3 21 23 48 34 43 42 48 99 59 98 18 161 54 245 138 83 84 98 81
53 -10z m-600 -118 c-5 -31 8 -122 22 -159 10 -27 -10 -22 -46 10 -28 25 -32
35 -33 84 0 42 4 62 18 77 29 32 46 27 39 -12z"/>
<path d="M293 628 c-13 -6 -23 -15 -23 -20 0 -20 56 -95 127 -169 127 -133
271 -198 458 -206 92 -5 125 -2 194 16 156 39 281 118 382 240 77 93 85 120
44 139 -14 7 -27 12 -29 12 -2 0 -16 -19 -31 -42 -42 -64 -173 -189 -232 -221
-114 -61 -298 -83 -438 -53 -134 28 -297 144 -375 266 -34 52 -41 56 -77 38z"/>
</g>
</svg>
