<?xml version="1.0" standalone="no"?>
<!DOCTYPE svg PUBLIC "-//W3C//DTD SVG 20010904//EN"
 "http://www.w3.org/TR/2001/REC-SVG-20010904/DTD/svg10.dtd">
<svg version="1.0" xmlns="http://www.w3.org/2000/svg"
 width="221.000000pt" height="220.000000pt" viewBox="0 0 221.000000 220.000000"
 preserveAspectRatio="xMidYMid meet">

<g transform="translate(0.000000,220.000000) scale(0.100000,-0.100000)"
fill="#000000" stroke="none">
<path d="M126 1525 c-9 -26 -7 -32 5 -12 6 10 9 21 6 23 -2 3 -7 -2 -11 -11z"/>
<path d="M96 1455 c-3 -9 0 -15 9 -15 9 0 12 6 9 15 -4 8 -7 15 -9 15 -2 0 -5
-7 -9 -15z"/>
<path d="M105 1420 c4 -6 10 -8 15 -5 5 3 12 0 16 -6 5 -8 3 -9 -6 -4 -9 5
-11 4 -6 -4 10 -16 26 -4 19 14 -3 8 -14 15 -25 15 -10 0 -16 -5 -13 -10z"/>
<path d="M90 1400 c9 -16 8 -18 -5 -14 -8 4 -15 1 -15 -5 0 -6 5 -11 10 -11 6
0 10 -4 10 -10 0 -5 -6 -7 -14 -4 -10 4 -15 -1 -15 -13 -1 -10 -8 -63 -16
-118 -30 -199 1 -376 102 -580 57 -115 120 -200 225 -301 135 -132 279 -211
485 -265 100 -27 340 -40 328 -18 -6 11 -5 12 6 2 19 -19 42 -16 35 3 -6 14
-4 15 10 4 13 -11 17 -11 24 -1 4 8 13 10 19 7 6 -4 11 -3 11 3 0 5 -4 12 -10
16 -5 3 -7 12 -3 21 4 11 1 13 -18 6 -46 -17 -308 10 -423 43 -165 48 -282
115 -402 232 -144 140 -246 312 -295 498 -21 78 -24 110 -22 245 1 85 2 160 3
165 1 6 -1 24 -4 40 -5 21 -4 26 3 15 5 -8 7 -18 4 -24 -3 -5 -1 -6 5 -3 19
12 -5 70 -33 81 -13 4 -14 2 -5 -14z m1165 -1310 c-3 -5 -13 -6 -21 -3 -12 4
-13 8 -3 14 15 9 32 2 24 -11z"/>
<path d="M275 1320 c-11 -17 5 -32 21 -19 7 6 11 15 8 20 -7 12 -21 11 -29 -1z"/>
<path d="M282 1193 c-6 -2 -10 -9 -7 -14 4 -5 -1 -6 -9 -3 -14 5 -16 -4 -16
-59 l0 -65 66 -1 c36 0 63 3 60 8 -4 5 3 7 13 4 17 -4 19 1 19 41 0 25 -4 44
-9 41 -5 -4 -6 0 -3 8 3 8 1 18 -5 22 -6 3 -11 1 -11 -4 0 -6 -5 -11 -11 -11
-5 0 -7 5 -3 12 4 7 3 8 -4 4 -7 -4 -12 -1 -12 8 0 9 -4 16 -9 16 -14 0 -1
-38 15 -44 19 -7 18 -51 -2 -71 -9 -9 -23 -14 -31 -11 -8 3 -18 6 -23 6 -5 0
-11 9 -15 19 -7 22 4 73 14 67 12 -8 34 11 27 23 -7 11 -22 13 -44 4z"/>
<path d="M562 1158 c-6 -6 -12 -19 -12 -27 0 -13 2 -13 16 1 9 9 15 21 13 27
-3 9 -8 8 -17 -1z"/>
<path d="M750 1111 c0 -20 28 -43 35 -30 4 5 5 11 4 12 -2 2 -12 9 -21 16 -13
10 -18 10 -18 2z"/>
<path d="M790 1061 c0 -6 4 -13 10 -16 6 -3 7 1 4 9 -7 18 -14 21 -14 7z"/>
<path d="M623 1025 c-11 -8 -24 -26 -27 -40 -9 -34 9 -97 33 -119 19 -17 20
-17 35 13 17 31 21 82 9 95 -4 3 -8 16 -10 29 -5 32 -16 39 -40 22z"/>
<path d="M270 926 c0 -32 21 -38 111 -30 77 6 77 7 67 30 -11 22 -16 24 -95
24 -81 0 -83 -1 -83 -24z"/>
<path d="M791 888 c-6 -17 -4 -26 8 -35 14 -12 14 -12 -4 -7 -16 5 -17 4 -5
-5 24 -17 29 -13 28 24 -2 43 -15 55 -27 23z"/>
<path d="M761 808 c-23 -24 -27 -38 -10 -38 20 0 49 21 49 35 0 24 -18 26 -39
3z"/>
<path d="M326 792 c-4 -6 -1 -20 6 -32 12 -18 23 -20 121 -20 l107 0 -16 25
c-9 14 -24 25 -33 25 -9 0 -53 3 -97 6 -54 4 -84 3 -88 -4z"/>
<path d="M930 765 c-7 -8 -9 -15 -5 -15 4 0 1 -8 -6 -17 -11 -13 -11 -15 -1
-9 11 7 11 4 1 -12 -7 -12 -15 -20 -16 -18 -4 3 -85 -76 -93 -90 -3 -5 18 -10
45 -12 28 -1 71 -9 97 -17 54 -17 69 -19 48 -5 -11 7 -12 10 -2 10 8 0 16 -9
19 -19 5 -20 31 -36 41 -26 3 3 0 5 -6 5 -7 0 -12 7 -12 15 0 8 -4 15 -10 15
-5 0 -10 10 -11 23 0 12 -3 16 -6 9 -2 -6 -9 -9 -14 -6 -6 3 -5 11 2 20 9 11
8 18 -5 32 -9 10 -13 22 -9 26 4 3 8 17 9 29 2 12 0 16 -2 9 -3 -6 -10 -10
-14 -7 -5 3 -7 -4 -5 -15 2 -11 0 -20 -6 -20 -5 0 -9 -5 -9 -11 0 -5 5 -7 12
-3 7 4 8 3 4 -4 -4 -7 -1 -12 8 -12 9 0 16 -4 16 -10 0 -6 -6 -9 -12 -8 -7 2
-12 -3 -10 -9 4 -21 -12 -15 -27 10 -13 20 -13 21 2 8 10 -7 17 -9 17 -3 0 5
-7 15 -15 22 -8 7 -12 17 -8 24 11 17 12 37 2 30 -5 -3 -7 -9 -4 -14 6 -9 -25
-23 -33 -15 -3 3 0 5 6 5 10 0 28 38 24 53 -1 4 3 7 9 7 8 0 9 4 0 13 -6 8 -8
17 -4 20 3 4 4 7 1 7 -3 0 -11 -7 -18 -15z"/>
<path d="M400 632 c0 -23 43 -52 77 -52 35 0 113 36 113 52 0 4 -43 8 -95 8
-52 0 -95 -4 -95 -8z"/>
<path d="M1030 601 c0 -6 4 -13 10 -16 6 -3 7 1 4 9 -7 18 -14 21 -14 7z"/>
<path d="M1062 550 c7 -11 17 -20 22 -20 5 0 1 9 -9 20 -10 11 -20 20 -22 20
-2 0 2 -9 9 -20z"/>
<path d="M574 451 l30 -31 110 1 c61 1 143 4 181 8 l70 6 -45 20 c-37 16 -74
20 -210 23 l-165 4 29 -31z"/>
<path d="M1341 468 c-1 -21 15 -32 25 -17 4 7 3 9 -4 5 -6 -3 -13 2 -15 11 -4
16 -5 16 -6 1z"/>
<path d="M1304 443 c10 -11 37 -12 30 -2 -3 5 -12 9 -21 9 -9 0 -13 -3 -9 -7z"/>
<path d="M806 322 c-6 -10 16 -20 89 -43 46 -14 213 -20 221 -8 2 5 -7 18 -21
31 -28 25 -71 36 -59 16 6 -10 4 -10 -7 -2 -17 14 -215 19 -223 6z"/>
<path d="M1296 122 c-10 -17 7 -52 26 -52 16 0 17 3 8 20 -6 11 -16 20 -23 20
-7 0 -6 4 3 10 9 6 10 10 3 10 -6 0 -14 -4 -17 -8z"/>
<path d="M1362 108 c5 -15 28 -18 29 -3 0 6 -7 12 -17 13 -10 3 -15 -1 -12
-10z"/>
</g>
</svg>
