<?xml version="1.0" standalone="no"?>
<!DOCTYPE svg PUBLIC "-//W3C//DTD SVG 20010904//EN"
 "http://www.w3.org/TR/2001/REC-SVG-20010904/DTD/svg10.dtd">
<svg version="1.0" xmlns="http://www.w3.org/2000/svg"
 width="1024.000000pt" height="1024.000000pt" viewBox="0 0 1024.000000 1024.000000"
 preserveAspectRatio="xMidYMid meet">

<g transform="translate(0.000000,1024.000000) scale(0.100000,-0.100000)"
fill="#000000" stroke="none">
<path d="M0 5120 l0 -5120 5120 0 5120 0 0 5120 0 5120 -5120 0 -5120 0 0
-5120z m5326 2160 c256 -25 519 -102 769 -225 877 -432 1340 -1331 1184 -2300
-69 -434 -288 -848 -619 -1175 -116 -114 -265 -236 -286 -234 -7 1 -12 -2 -11
-7 1 -4 -32 -30 -73 -57 -100 -65 -118 -74 -133 -66 -6 4 -9 4 -5 -1 11 -12
-14 -27 -131 -80 -57 -25 -110 -44 -118 -41 -8 3 -12 2 -9 -3 3 -5 -6 -12 -22
-16 -42 -12 -45 -13 -87 -29 -29 -10 -44 -11 -53 -3 -10 8 -12 7 -10 -2 2 -8
-15 -18 -40 -26 -43 -13 -86 -10 -76 6 3 5 10 7 15 4 5 -3 6 1 3 9 -8 20 4 20
25 2 11 -10 21 -12 31 -6 11 7 8 11 -15 20 -17 6 -32 11 -34 10 -2 -1 -8 5
-13 13 -5 10 -18 14 -36 11 -15 -3 -35 -5 -45 -5 -11 0 -15 -5 -10 -12 3 -7
-3 -4 -14 5 -11 10 -24 18 -29 18 -5 0 -2 -5 6 -10 10 -7 11 -10 2 -10 -7 0
-15 7 -18 15 -7 17 14 48 26 40 4 -3 26 2 49 10 23 8 42 14 44 13 1 -1 18 4
37 10 19 6 44 13 55 15 11 2 37 11 57 21 21 9 42 16 48 16 22 0 170 70 268
127 40 24 75 43 78 43 3 0 37 21 75 46 38 26 75 44 83 41 10 -4 13 -1 10 7 -6
15 36 46 61 46 9 0 14 4 11 8 -3 5 6 15 19 22 14 7 25 17 25 22 0 4 7 8 15 8
8 0 15 4 15 8 0 13 93 107 103 104 5 -1 6 1 3 6 -2 4 18 33 46 63 39 42 155
192 236 304 4 6 20 33 35 60 138 248 231 536 257 795 32 329 -19 661 -152 980
-93 223 -239 435 -425 618 -179 176 -292 258 -506 372 -330 173 -616 238
-1015 227 -232 -6 -347 -25 -551 -93 -314 -105 -566 -262 -809 -504 -130 -130
-169 -177 -277 -335 -38 -55 -72 -99 -77 -97 -5 1 -7 -2 -4 -7 9 -13 -58 -143
-69 -134 -4 5 -5 0 -2 -10 4 -10 3 -16 -1 -13 -4 2 -14 1 -22 -5 -13 -7 -12
-9 3 -9 21 0 21 -3 0 -43 -9 -18 -18 -36 -18 -42 -1 -5 -3 -16 -3 -22 -1 -7
-9 -13 -17 -13 -8 0 -15 -5 -15 -11 0 -5 5 -7 12 -3 7 5 9 2 6 -7 -3 -8 -15
-48 -27 -89 -13 -41 -27 -83 -32 -92 -5 -10 -6 -25 -3 -35 5 -15 4 -16 -5 -3
-6 8 -11 12 -12 8 -1 -5 -2 -11 -3 -16 0 -4 -10 -19 -21 -33 -18 -23 -22 -24
-34 -11 -12 13 -12 14 0 10 17 -6 43 18 34 31 -3 6 1 14 10 18 13 8 12 14 -6
51 -19 37 -23 40 -41 31 -19 -10 -19 -12 10 -29 39 -24 46 -37 23 -43 -15 -3
-18 -1 -14 11 5 11 3 13 -7 7 -9 -5 -11 -4 -6 4 11 17 -22 25 -40 10 -12 -10
-15 -10 -12 2 2 8 9 19 17 25 11 9 11 13 1 19 -7 4 -16 2 -21 -6 -5 -8 -9 -9
-9 -4 0 6 5 17 10 25 5 8 10 11 10 6 0 -6 14 5 32 23 17 17 37 30 44 27 7 -3
16 -1 19 3 3 5 -2 11 -10 15 -19 7 -8 36 14 36 9 0 22 -5 28 -11 9 -9 11 -7 6
9 -3 14 -11 19 -24 17 -11 -2 -17 0 -14 4 2 5 -2 14 -10 21 -15 13 -21 35 -7
26 4 -2 9 5 9 17 2 16 0 18 -6 8 -5 -7 -13 -11 -18 -8 -5 3 -9 -7 -9 -24 0
-16 4 -29 8 -29 5 0 6 -5 2 -12 -5 -7 -3 -8 6 -3 8 5 11 3 8 -6 -3 -8 -15 -13
-26 -11 -24 4 -30 -15 -8 -24 9 -4 5 -13 -16 -36 -37 -40 -46 -30 -19 24 15
31 17 44 9 50 -7 4 -9 10 -5 14 3 4 13 2 20 -5 12 -9 14 -3 12 39 -2 52 -1 53
46 53 9 0 16 5 16 12 0 9 -9 10 -31 4 -17 -5 -32 -9 -33 -9 -1 0 0 7 3 15 4 8
13 15 21 15 8 0 12 4 9 9 -3 4 5 7 18 6 13 -2 23 3 23 10 0 7 -8 10 -19 7 -19
-5 -25 12 -8 23 5 3 7 12 3 20 -6 18 27 16 50 -3 11 -10 17 -10 22 -1 6 8 10
7 17 -2 8 -12 9 -12 6 0 -4 13 -17 18 -60 23 -10 1 -18 6 -18 10 0 13 21 20
33 11 7 -4 5 0 -5 9 -12 10 -15 19 -8 23 6 3 8 10 5 15 -3 5 3 18 14 29 11 11
16 22 13 26 -4 3 2 3 12 -1 17 -7 17 -8 3 -19 -9 -7 -14 -15 -10 -18 10 -11
25 -8 18 3 -3 6 -1 10 4 10 15 0 14 27 -1 33 -10 3 -9 8 2 22 10 13 11 16 2
11 -11 -7 -11 -4 0 13 7 12 16 21 21 21 4 0 5 5 2 10 -9 14 7 12 27 -4 10 -7
14 -17 10 -22 -4 -4 1 -2 11 5 9 7 17 16 17 19 0 3 -3 2 -6 -1 -10 -10 -44 12
-44 28 0 8 7 18 16 23 9 5 15 12 15 15 -2 18 1 25 27 53 15 16 39 48 53 70 15
21 46 60 71 87 24 26 42 49 40 52 -3 3 2 5 11 5 10 0 17 7 17 15 0 8 7 15 16
15 8 0 13 4 10 8 -4 8 75 89 165 167 275 243 612 409 999 495 166 37 439 49
646 30z m-114 -426 l88 -7 0 -86 c1 -52 5 -92 13 -102 19 -25 55 -40 81 -33
44 11 61 40 66 118 l5 71 33 -3 c38 -4 217 -61 290 -92 l50 -22 0 -64 c-1 -50
3 -71 19 -92 43 -57 143 -30 143 40 0 15 4 28 8 28 18 0 232 -150 232 -162 0
-9 -462 -11 -508 -2 -41 8 -62 47 -39 72 10 10 17 35 17 54 0 28 -7 42 -31 62
-40 34 -74 33 -110 -3 -24 -25 -29 -37 -29 -80 0 -28 -2 -51 -5 -51 -3 0 -33
9 -66 20 -34 12 -104 30 -157 40 -54 11 -107 22 -119 25 -19 4 -21 11 -20 75
1 85 -13 105 -74 105 -60 0 -81 -31 -76 -112 1 -35 -1 -63 -5 -63 -40 0 -219
-25 -286 -40 l-84 -18 6 20 c6 26 -16 72 -46 92 -34 24 -66 19 -99 -13 -33
-33 -39 -83 -14 -111 14 -16 13 -20 -19 -48 l-35 -31 -231 -1 c-148 0 -230 3
-230 9 0 6 12 19 27 28 16 10 62 42 103 72 64 45 75 50 78 35 10 -62 67 -97
119 -72 48 23 63 80 38 153 -6 19 6 26 112 68 129 51 166 64 231 76 l42 8 0
-62 c0 -48 5 -68 21 -89 27 -34 82 -36 116 -4 20 19 23 31 23 104 l0 83 38 3
c89 8 203 9 284 2z m-117 -546 c-25 -83 -172 -319 -285 -459 -60 -75 -314
-319 -327 -315 -7 3 -10 0 -7 -7 6 -16 -112 -111 -127 -101 -7 4 -9 3 -5 -4 4
-6 -10 -22 -31 -36 -43 -30 -53 -32 -53 -11 0 8 -4 15 -9 15 -5 0 -12 7 -15
16 -3 8 -2 12 4 9 6 -3 13 1 16 9 3 9 10 13 15 11 4 -3 23 8 40 25 18 16 36
30 41 30 5 0 7 4 4 8 -3 4 12 21 32 38 140 112 287 294 347 429 32 73 32 106
-1 144 -20 24 -34 31 -63 31 -44 0 -54 -10 -132 -125 -58 -86 -257 -298 -308
-328 -29 -17 -32 -17 -38 -2 -3 10 -2 20 3 24 5 3 10 15 11 26 0 11 4 31 8 45
4 14 8 34 9 45 4 33 17 65 27 65 5 0 9 9 9 20 0 11 5 20 10 20 6 0 10 5 10 11
0 16 83 120 123 154 52 45 108 88 127 100 160 95 291 134 458 135 113 0 113 0
107 -22z m300 -52 c28 -13 58 -32 67 -43 17 -19 16 -21 -15 -51 -51 -50 -194
-101 -210 -76 -8 14 80 194 95 194 7 0 36 -11 63 -24z m-1225 -14 c0 -4 -26
-33 -58 -65 l-58 -57 -172 0 c-145 0 -174 2 -178 15 -8 19 14 47 29 38 6 -3 7
-1 3 6 -4 6 5 24 23 41 l29 30 191 0 c105 0 191 -4 191 -8z m2317 -39 c21 -27
45 -56 52 -65 13 -17 -5 -18 -346 -18 l-360 0 -56 57 c-31 31 -54 60 -51 65 3
4 166 8 364 8 l358 0 39 -47z m-853 -270 c36 -72 124 -317 176 -493 18 -58 41
-132 51 -164 30 -95 33 -91 -81 -91 -115 0 -138 -12 -147 -82 -4 -34 -2 -43
18 -57 13 -9 40 -16 60 -16 20 0 42 -7 49 -15 13 -15 6 -35 -12 -35 -6 0 -20
-8 -30 -17 -18 -16 -17 -18 13 -49 l32 -33 -21 -26 c-19 -24 -19 -29 -6 -60
19 -45 18 -85 -2 -114 -31 -44 -69 -51 -278 -51 l-194 0 -6 -57 c-11 -113 2
-704 17 -778 15 -69 9 -103 -15 -89 -6 4 -5 -4 2 -17 11 -23 10 -23 -4 -5 -9
11 -16 26 -16 33 0 7 -5 13 -11 13 -14 0 -159 132 -159 145 0 14 61 18 80 5
10 -6 11 -10 2 -10 -6 0 -11 -5 -10 -11 2 -6 -3 -14 -11 -17 -8 -2 -11 0 -7 6
3 6 1 14 -5 18 -7 4 -9 3 -5 -4 3 -5 2 -12 -3 -14 -5 -1 2 -12 17 -22 14 -11
22 -14 18 -8 -4 6 0 22 9 36 15 23 15 25 -2 34 -18 10 -53 15 -85 13 -12 -1
-15 -6 -11 -18 4 -11 3 -14 -6 -9 -7 5 -10 14 -7 21 6 16 -28 30 -46 19 -9 -6
-9 -3 1 9 12 15 9 21 -11 18 -5 0 -8 3 -8 9 0 5 -5 10 -12 10 -6 0 -20 8 -30
17 -13 12 -21 14 -29 6 -6 -6 -18 -9 -27 -6 -11 5 -5 11 19 23 24 11 33 22 32
37 -2 15 4 22 21 25 18 4 23 1 21 -11 -2 -9 -4 -18 -4 -21 -1 -3 -6 2 -11 10
-8 13 -10 13 -10 -2 0 -9 3 -18 8 -21 4 -2 1 -2 -5 -1 -15 4 -17 -12 -3 -21 6
-4 8 -11 5 -16 -4 -5 3 -9 14 -9 11 0 23 5 27 12 4 6 3 8 -4 4 -6 -3 -14 -1
-18 5 -4 7 -3 9 3 6 7 -5 11 12 11 48 -1 54 -1 55 -22 41 -20 -12 -22 -12 -23
5 -1 12 3 17 10 13 7 -4 9 -4 5 0 -3 4 -10 8 -15 9 -12 1 -33 24 -33 36 0 13
-17 14 -24 2 -4 -5 0 -12 6 -15 7 -3 0 -4 -15 -1 -19 4 -26 2 -22 -5 4 -6 17
-10 28 -9 36 2 43 -1 27 -12 -13 -10 -13 -10 0 -6 22 7 23 -29 3 -59 -8 -13
-23 -24 -32 -24 -14 0 -14 -2 -1 -10 9 -6 10 -10 3 -10 -6 0 -14 4 -18 9 -6
11 21 41 37 41 5 0 8 6 5 14 -3 8 -1 17 6 20 7 2 2 5 -11 5 -18 1 -22 -3 -18
-17 5 -14 0 -17 -25 -18 -22 -1 -27 1 -18 7 11 7 9 10 -8 15 -13 4 -23 11 -23
16 0 5 -5 6 -12 2 -7 -4 -8 -3 -4 4 4 7 14 12 22 12 8 0 12 -4 9 -10 -4 -6 5
-9 20 -8 31 3 28 20 -5 25 -29 4 -40 13 -16 13 9 0 14 5 11 10 -3 6 -15 10
-26 10 -11 0 -17 -4 -14 -10 12 -20 -7 -32 -25 -15 -16 15 -18 14 -23 -6 -7
-26 -32 -20 -32 7 1 10 -4 23 -10 27 -6 5 -4 7 5 4 8 -2 14 -14 14 -25 -1 -12
3 -22 7 -22 9 0 13 22 9 50 -1 10 3 9 14 -5 9 -12 15 -15 16 -7 0 7 4 11 9 7
5 -3 17 2 25 11 14 13 17 14 22 1 4 -13 22 -15 44 -7 3 1 8 2 13 1 4 0 7 4 7
10 0 8 5 8 15 -1 18 -15 20 0 3 19 -11 11 -10 13 5 8 19 -7 24 8 4 16 -6 2
-18 -2 -25 -9 -7 -8 -9 -14 -5 -14 4 0 0 -5 -9 -11 -12 -7 -24 -7 -35 0 -16 9
-16 10 5 11 12 0 22 5 22 11 0 5 -5 7 -12 3 -7 -5 -8 -3 -4 5 5 7 14 10 22 7
22 -8 17 2 -7 15 -15 8 -19 8 -15 0 4 -6 0 -11 -9 -11 -9 0 -14 -4 -11 -9 5
-8 -34 -31 -61 -37 -23 -4 -13 6 20 20 29 14 30 15 5 11 -14 -2 -36 -9 -48
-15 -13 -7 -20 -8 -16 -2 3 6 -7 13 -24 17 -35 8 -38 20 -11 37 11 7 17 18 13
27 -3 9 4 5 15 -8 13 -16 22 -20 27 -13 4 7 -6 25 -24 42 -16 16 -30 31 -30
32 0 2 11 4 25 4 15 1 25 -3 25 -12 0 -8 5 -14 11 -14 5 0 7 -4 4 -10 -3 -5
-1 -18 4 -27 6 -10 11 -14 11 -10 0 5 7 1 16 -7 8 -9 23 -15 32 -15 15 1 15 2
0 6 -18 4 -20 8 -21 41 -1 9 -6 20 -12 24 -5 4 -10 15 -11 25 -1 10 -4 28 -8
41 -5 13 -3 22 3 22 6 0 10 -3 10 -7 -4 -26 2 -35 14 -24 8 6 16 10 18 8 2 -1
-8 8 -24 21 -31 27 -29 41 8 37 30 -4 35 21 6 30 -19 6 -22 20 -7 43 4 7 4 12
-1 11 -21 -4 -43 2 -43 11 0 5 8 7 18 4 15 -5 15 -4 1 8 -8 7 -16 27 -16 43
-1 30 -10 79 -18 102 -5 16 22 36 40 29 8 -3 15 -2 15 3 0 10 79 46 97 44 7 0
10 3 7 8 -3 5 0 9 5 9 6 0 11 7 11 16 0 10 5 14 16 10 8 -3 13 -2 10 2 -3 5 7
24 23 43 28 35 45 68 43 82 -1 4 2 7 6 7 5 0 9 6 10 13 0 6 4 47 8 90 5 56 11
80 22 85 28 10 93 77 122 124 33 52 60 136 60 183 0 41 50 117 107 160 101 77
226 270 239 368 4 26 8 47 10 47 2 0 19 -30 38 -67z m-1717 -6 c3 -3 -10 -30
-28 -60 l-33 -55 -125 -1 c-83 0 -130 4 -140 12 -12 9 -13 9 -7 0 5 -10 -5
-13 -41 -13 -38 1 -44 3 -30 11 9 5 21 8 25 5 4 -2 12 6 19 20 9 19 8 26 -6
36 -14 11 -14 11 -3 -3 10 -13 10 -19 -2 -29 -9 -6 -21 -8 -27 -4 -8 5 -9 3
-4 -6 6 -9 4 -11 -4 -6 -9 6 -9 12 3 24 14 16 16 21 16 40 0 12 33 11 48 -1 7
-6 12 -6 11 -1 -6 31 3 33 129 36 146 3 191 2 199 -5z m2736 7 c14 -5 67 -100
67 -119 0 -3 -157 -5 -348 -5 l-348 0 -32 53 c-18 29 -32 56 -32 59 0 4 17 8
38 10 81 7 638 9 655 2z m-3073 -13 c0 -5 -9 -7 -20 -4 -11 3 -20 7 -20 9 0 2
9 4 20 4 11 0 20 -4 20 -9z m1768 -43 c-25 -38 -123 -112 -174 -131 -27 -10
-82 -21 -123 -24 l-74 -6 29 39 c15 21 44 58 62 82 l34 42 77 1 c61 1 159 10
180 18 2 0 -3 -9 -11 -21z m-1761 -273 c12 -1 20 2 17 6 -3 5 0 9 5 9 6 0 11
-6 11 -12 0 -8 3 -9 8 -3 4 6 40 11 80 11 63 2 72 0 67 -14 -3 -9 -13 -36 -21
-61 l-15 -46 -62 4 c-34 1 -65 8 -69 15 -6 8 -8 8 -8 -1 0 -8 -13 -13 -32 -13
-39 0 -63 13 -54 29 4 6 3 11 -3 11 -5 0 -13 -5 -17 -11 -5 -8 -10 -6 -16 5
-9 17 -28 13 -28 -5 0 -6 6 -7 13 -3 9 6 9 4 -1 -8 -10 -13 -17 -14 -36 -5
l-24 12 26 12 c15 6 21 12 14 12 -9 1 -10 6 -2 20 15 29 12 38 -5 15 -13 -17
-14 -17 -15 -2 0 23 18 32 35 18 9 -7 15 -8 20 0 10 16 25 12 19 -5 -4 -8 -12
-15 -19 -15 -7 0 -16 -8 -19 -17 -4 -10 -4 -14 0 -10 4 4 14 1 22 -6 13 -10
15 -9 9 5 -3 9 1 22 10 30 14 11 15 10 9 -8 -4 -14 -2 -21 8 -21 11 0 12 6 6
22 -10 26 7 48 30 39 8 -3 25 -7 37 -9z m3212 -7 c5 -13 12 -42 16 -65 l7 -43
-340 0 c-260 0 -342 3 -349 13 -16 21 -36 94 -29 106 5 8 109 11 347 11 l339
0 9 -22z m-3779 -29 c0 -6 5 -7 12 -3 6 4 8 3 5 -4 -4 -5 -16 -8 -27 -5 -28 7
-33 19 -9 20 10 1 19 -3 19 -8z m44 -31 c-3 -4 -9 -8 -15 -8 -5 0 -9 4 -9 8 0
5 7 9 15 9 8 0 12 -4 9 -9z m-44 -23 c0 -8 -2 -15 -4 -15 -2 0 -6 7 -10 15 -3
8 -1 15 4 15 6 0 10 -7 10 -15z m95 -14 c-3 -6 -11 -11 -16 -11 -5 0 -4 6 3
14 14 16 24 13 13 -3z m382 3 c-3 -3 -12 -4 -19 -1 -8 3 -5 6 6 6 11 1 17 -2
13 -5z m1548 -5 c12 -19 -29 -111 -70 -157 -64 -71 -127 -96 -226 -89 -42 3
-92 12 -111 21 -34 16 -37 16 -74 -6 -22 -12 -48 -30 -58 -40 -19 -17 -31 -22
-49 -19 -18 3 26 -60 65 -94 71 -61 112 -77 215 -84 l92 -6 -15 -32 c-19 -39
-67 -63 -141 -70 -47 -5 -55 -4 -48 8 7 11 6 12 -6 2 -9 -7 -20 -8 -29 -3 -8
5 -17 7 -22 4 -11 -7 -78 24 -78 36 0 6 -4 9 -8 6 -5 -3 -22 8 -37 24 -16 17
-24 30 -18 30 6 0 13 -6 16 -12 2 -7 8 -10 11 -6 4 3 -1 15 -12 26 -11 11 -18
23 -15 26 4 3 1 6 -5 6 -7 0 -12 -5 -12 -12 0 -6 -3 -8 -7 -4 -5 4 0 14 10 21
18 13 18 14 0 24 -10 6 -12 11 -5 11 6 0 12 4 12 10 0 5 -7 7 -15 4 -11 -5
-13 -2 -8 12 4 12 3 15 -6 9 -10 -6 -11 -3 -2 14 11 19 23 25 44 22 4 0 7 5 7
13 0 7 19 26 43 41 23 16 46 34 50 42 4 7 12 13 17 13 6 0 18 8 28 18 64 61
132 121 132 117 0 -2 19 16 42 41 l41 45 124 -2 c68 -2 126 -6 128 -10z
m-2007 -34 c-3 -3 -9 2 -12 12 -6 14 -5 15 5 6 7 -7 10 -15 7 -18z m57 -5 c3
-5 1 -10 -4 -10 -6 0 -11 5 -11 10 0 6 2 10 4 10 3 0 8 -4 11 -10z m-30 -40
c-3 -5 -1 -10 5 -10 6 0 8 -5 4 -11 -4 -7 -9 -7 -13 -1 -3 5 -14 8 -24 6 -9
-1 -15 2 -11 7 3 5 9 7 14 4 5 -3 11 -1 15 5 3 5 8 10 11 10 3 0 2 -4 -1 -10z
m22 -62 c0 -7 -12 -14 -26 -15 l-26 -1 25 14 c14 7 25 13 26 14 0 0 1 -6 1
-12z m-8 -65 c2 -1 -5 -1 -16 0 -11 0 -20 7 -20 14 0 10 4 10 16 1 9 -7 18
-13 20 -15z m3786 -55 c3 -40 5 -111 3 -158 l-3 -85 -345 -2 c-190 -1 -351 1
-358 6 -11 7 -12 26 -2 105 6 54 9 117 5 142 -3 25 -3 49 0 54 4 6 141 10 350
10 l343 0 7 -72z m-3427 49 c7 -5 10 -13 6 -18 -3 -5 -10 -7 -15 -3 -5 3 -7 9
-5 13 3 4 -2 8 -10 8 -10 0 -11 -4 -4 -11 16 -16 12 -29 -6 -22 -14 5 -15 4
-4 -9 10 -12 16 -13 27 -4 11 9 17 9 26 -1 10 -10 9 -12 -5 -7 -10 3 -20 2
-23 -3 -6 -10 8 -14 35 -10 22 3 24 8 11 24 -14 17 -7 36 12 35 9 0 9 -2 0 -6
-7 -2 -13 -9 -13 -14 0 -6 6 -7 13 -3 6 4 9 4 5 -1 -4 -4 -3 -13 2 -20 14 -17
-35 -38 -59 -25 -25 13 -34 1 -13 -19 10 -9 13 -13 8 -8 -13 10 -28 9 -22 -1
3 -5 -1 -9 -9 -9 -8 0 -13 3 -10 5 3 3 0 11 -6 18 -7 8 -7 14 1 19 8 5 8 11 0
20 -7 9 -6 16 5 25 11 9 12 16 5 25 -7 9 -4 12 13 11 12 -1 28 -5 35 -9z m77
3 c-3 -5 -12 -7 -20 -3 -21 7 -19 13 6 13 11 0 18 -4 14 -10z m30 -29 c-3 -5
-1 -12 4 -15 15 -10 24 13 11 29 -16 19 -4 23 73 23 60 0 66 -2 55 -16 -10
-12 -10 -14 0 -8 7 4 12 1 12 -9 0 -10 -5 -13 -12 -9 -9 6 -9 3 1 -9 7 -9 10
-24 7 -33 -6 -15 -9 -15 -27 5 -21 22 -49 20 -30 -3 6 -7 7 -17 3 -21 -4 -5 0
-6 10 -2 19 7 56 -17 41 -26 -6 -4 -22 -11 -37 -17 -20 -7 -25 -7 -20 2 5 8 2
9 -11 4 -18 -6 -18 -6 -2 12 9 10 14 22 10 26 -5 4 -8 16 -8 27 0 10 -4 19 -9
18 -5 0 -12 5 -17 13 -6 10 -11 10 -21 0 -9 -9 -8 -12 6 -12 10 0 14 -4 10
-12 -4 -7 -3 -8 4 -4 7 4 12 3 12 -2 0 -5 -8 -12 -19 -15 -11 -3 -18 1 -17 9
0 7 -2 12 -5 11 -3 -1 -14 5 -24 13 -17 13 -18 13 -13 -1 3 -9 1 -16 -5 -16
-7 0 -12 10 -12 23 0 12 3 20 8 17 4 -2 7 6 7 19 1 20 2 21 11 5 5 -9 8 -21 4
-26z m-165 15 c0 -3 -4 -8 -10 -11 -5 -3 -10 -1 -10 4 0 6 5 11 10 11 6 0 10
-2 10 -4z m659 -45 c-6 -2 -20 -12 -29 -21 -15 -15 -16 -19 -4 -24 22 -8 29
-7 29 6 0 14 21 22 28 11 2 -4 -9 -19 -26 -33 -17 -14 -28 -20 -24 -14 4 7 -4
19 -17 28 -18 11 -26 12 -29 3 -2 -6 -7 -9 -11 -6 -9 8 4 40 14 34 4 -3 13 2
20 10 7 8 17 12 23 8 6 -4 8 0 4 9 -9 24 6 32 21 11 9 -13 10 -19 1 -22z
m-424 -41 c3 -6 -1 -7 -9 -4 -18 7 -21 14 -7 14 6 0 13 -4 16 -10z m-251 -16
c3 -8 2 -12 -4 -9 -6 3 -10 10 -10 16 0 14 7 11 14 -7z m608 -11 c-6 -2 -9
-10 -6 -15 4 -7 2 -8 -5 -4 -13 9 -5 26 12 25 9 0 8 -2 -1 -6z m19 -26 c-10
-9 -11 -8 -5 6 3 10 9 15 12 12 3 -3 0 -11 -7 -18z m-568 1 c-4 -7 -8 -19 -9
-26 -2 -8 -6 -17 -10 -20 -4 -4 -5 0 -1 9 3 9 0 22 -6 29 -9 10 -9 11 0 6 6
-3 14 -2 18 4 3 5 8 10 11 10 3 0 2 -6 -3 -12z m227 -24 c0 -8 -19 -13 -24 -6
-3 5 1 9 9 9 8 0 15 -2 15 -3z m50 2 c0 -2 -7 -7 -16 -10 -8 -3 -12 -2 -9 4 6
10 25 14 25 6z m-323 -41 c0 -8 -4 -12 -9 -9 -5 3 -6 10 -3 15 9 13 12 11 12
-6z m251 1 c-10 -7 -15 -16 -12 -19 3 -3 2 -13 -4 -22 -8 -16 -9 -16 -15 -1
-4 10 -3 15 3 11 6 -3 10 -1 10 4 0 6 -6 11 -12 11 -7 1 -2 7 12 15 31 18 40
19 18 1z m-214 -4 c3 -5 -1 -9 -9 -9 -8 0 -12 4 -9 9 3 4 7 8 9 8 2 0 6 -4 9
-8z m260 -42 c-5 -5 -10 3 -11 18 -1 22 0 24 9 8 6 -10 6 -22 2 -26z m-190
-13 c7 3 6 1 -1 -7 -9 -10 -19 -8 -47 10 -47 28 -46 36 1 10 20 -10 41 -16 47
-13z m223 3 c2 -17 -4 -20 -37 -20 -26 0 -40 5 -44 16 -5 13 -4 14 7 5 19 -15
66 -11 60 6 -3 7 -1 13 4 13 5 0 9 -9 10 -20z m-303 -12 c-3 -4 -11 -5 -19 -1
-21 7 -19 12 4 10 11 0 18 -5 15 -9z m166 -3 c0 -2 -14 -3 -31 -3 -17 1 -25 4
-18 8 10 7 49 2 49 -5z m614 -47 c-9 -14 -23 2 -17 18 4 12 8 13 14 3 4 -7 5
-17 3 -21z m20 -16 c3 -5 -1 -9 -9 -9 -8 0 -12 4 -9 9 3 4 7 8 9 8 2 0 6 -4 9
-8z m-92 -29 c-6 -2 -9 -10 -6 -15 4 -7 2 -8 -5 -4 -13 9 -5 26 12 25 9 0 8
-2 -1 -6z m111 -18 c4 -8 -1 -11 -12 -8 -10 2 -18 10 -18 18 0 16 23 9 30 -10z
m-71 -27 c-8 -8 -9 -4 -5 13 4 13 8 18 11 10 2 -7 -1 -18 -6 -23z m72 -4 c9
-3 16 -14 15 -23 0 -11 -2 -12 -6 -3 -3 9 -9 10 -17 3 -8 -7 -12 -4 -12 10 0
10 1 19 2 19 1 0 9 -3 18 -6z m2608 -93 c-1 -18 -9 -48 -17 -67 l-14 -34 -384
0 c-211 0 -386 2 -389 5 -3 3 8 32 24 65 l28 60 338 2 c185 2 355 3 377 3 39
-1 40 -2 37 -34z m-3227 10 c3 -5 2 -12 -3 -15 -5 -3 -9 1 -9 9 0 17 3 19 12
6z m94 -37 c-6 -7 -16 -11 -23 -7 -7 5 -5 9 7 11 9 2 14 8 11 14 -4 7 -2 8 5
4 9 -6 9 -11 0 -22z m539 -9 c-3 -3 -9 2 -12 12 -6 14 -5 15 5 6 7 -7 10 -15
7 -18z m251 -34 c-1 -13 -2 -13 -6 2 -2 9 -9 17 -14 17 -5 0 -9 5 -9 11 0 8 5
8 15 -1 8 -7 14 -20 14 -29z m-819 13 c0 -8 -5 -12 -10 -9 -6 4 -8 11 -5 16 9
14 15 11 15 -7z m80 2 c0 -3 -4 -8 -10 -11 -5 -3 -10 -1 -10 4 0 6 5 11 10 11
6 0 10 -2 10 -4z m-52 -31 c-3 -3 -9 2 -12 12 -6 14 -5 15 5 6 7 -7 10 -15 7
-18z m837 15 c3 -5 1 -10 -4 -10 -6 0 -11 5 -11 10 0 6 2 10 4 10 3 0 8 -4 11
-10z m-379 -35 c-1 -8 -5 -17 -8 -21 -5 -4 -4 16 1 34 3 9 9 -1 7 -13z m69 5
c3 -5 1 -10 -4 -10 -6 0 -11 5 -11 10 0 6 2 10 4 10 3 0 8 -4 11 -10z m290
-11 c1 -8 7 -13 14 -11 7 1 10 -2 6 -8 -8 -13 -42 -13 -50 0 -4 6 1 7 12 4 14
-4 12 -1 -6 15 l-24 21 24 -3 c13 -2 24 -10 24 -18z m-15 -81 c0 -6 -6 -5 -15
2 -8 6 -19 9 -24 6 -5 -4 -13 -1 -17 5 -5 8 -3 9 6 4 10 -6 12 -4 7 8 -6 16
-5 16 18 1 14 -9 25 -21 25 -26z m25 22 c19 0 28 -17 14 -26 -7 -4 -9 -3 -6 3
4 6 -2 13 -13 16 -11 3 -20 11 -19 19 0 10 2 10 6 1 2 -7 11 -13 18 -13z m-26
-40 c12 -6 21 -13 21 -16 0 -3 -5 -2 -12 2 -7 4 -8 3 -4 -4 4 -6 13 -9 21 -5
11 3 13 1 9 -10 -3 -8 -13 -14 -22 -12 -29 4 -38 -9 -12 -16 l25 -7 -24 -1
c-19 -1 -21 -4 -12 -15 10 -12 8 -17 -8 -26 -12 -6 -20 -7 -19 -3 1 4 -3 18
-10 31 -7 12 -10 22 -6 22 4 0 -1 9 -10 19 -10 11 -13 21 -7 25 5 4 13 1 17
-5 4 -8 9 -7 16 2 6 10 7 7 3 -8 -4 -14 -2 -23 5 -23 15 0 8 45 -7 46 -7 1
-17 2 -23 3 -5 0 -10 6 -10 11 0 12 39 7 69 -10z m290 -63 c-2 -1 -12 -9 -21
-16 -15 -12 -18 -11 -18 3 0 10 8 16 22 16 12 0 19 -1 17 -3z m1943 -34 c-4
-10 -16 -37 -26 -60 l-18 -43 -277 -1 c-473 -1 -584 0 -588 5 -2 2 19 29 48
60 l52 56 408 0 c385 0 408 -1 401 -17z m-1924 -18 c14 -14 -9 -15 -35 -1
l-28 16 29 -5 c16 -2 31 -7 34 -10z m-868 -10 c11 -13 10 -14 -4 -9 -9 3 -16
10 -16 15 0 13 6 11 20 -6z m495 -3 c-3 -3 -11 0 -18 7 -9 10 -8 11 6 5 10 -3
15 -9 12 -12z m330 -2 c3 -5 2 -10 -4 -10 -5 0 -13 5 -16 10 -3 6 -2 10 4 10
5 0 13 -4 16 -10z m0 -30 c3 -5 -3 -10 -15 -10 -12 0 -18 5 -15 10 3 6 10 10
15 10 5 0 12 -4 15 -10z m-1 -36 c3 -8 2 -13 -3 -9 -5 3 -11 2 -14 -2 -2 -5
-2 -3 -1 4 2 7 -3 10 -12 6 -7 -3 -14 0 -14 6 0 17 37 13 44 -5z m-34 -24 c0
-5 -2 -10 -4 -10 -3 0 -8 5 -11 10 -3 6 -1 10 4 10 6 0 11 -4 11 -10z m46 -20
c0 -12 -4 -16 -9 -11 -5 5 -6 14 -3 20 10 15 12 14 12 -9z m-69 -26 c-3 -3
-12 -4 -19 -1 -8 3 -5 6 6 6 11 1 17 -2 13 -5z m88 -14 c3 -5 2 -10 -4 -10 -5
0 -13 5 -16 10 -3 6 -2 10 4 10 5 0 13 -4 16 -10z m-104 -23 c-10 -9 -11 -8
-5 6 3 10 9 15 12 12 3 -3 0 -11 -7 -18z m-35 -49 c5 4 0 -4 -11 -17 -21 -25
-21 -29 4 -48 10 -8 12 -12 4 -13 -7 0 -13 -8 -13 -17 0 -15 -2 -16 -10 -3 -6
10 -6 16 0 18 6 2 7 9 3 15 -12 19 -12 36 -2 43 6 3 5 12 -3 22 -11 15 -11 15
3 5 9 -7 20 -9 25 -5z m39 -18 c4 -6 1 -9 -7 -8 -7 2 -12 -2 -11 -9 2 -7 -4
-10 -12 -6 -13 5 -13 7 2 19 22 16 20 16 28 4z m1871 -32 c4 -5 -13 -33 -38
-65 l-45 -57 -479 3 c-263 1 -483 6 -487 10 -14 14 -19 69 -7 91 10 19 20 20
438 22 595 4 609 4 618 -4z m-1892 -40 c-5 -8 -1 -9 12 -4 14 5 16 4 7 -5 -13
-13 -37 -3 -28 12 4 5 8 9 11 9 3 0 2 -5 -2 -12z m-104 -18 c0 -5 -5 -10 -11
-10 -5 0 -7 5 -4 10 3 6 8 10 11 10 2 0 4 -4 4 -10z m34 2 c3 -5 -1 -9 -9 -9
-8 0 -12 4 -9 9 3 4 7 8 9 8 2 0 6 -4 9 -8z m170 -8 c3 -8 2 -12 -4 -9 -6 3
-10 10 -10 16 0 14 7 11 14 -7z m-234 -14 c0 -5 -5 -10 -11 -10 -5 0 -7 5 -4
10 3 6 8 10 11 10 2 0 4 -4 4 -10z m112 -12 c-7 -7 -12 -8 -12 -2 0 6 3 14 7
17 3 4 9 5 12 2 2 -3 -1 -11 -7 -17z m39 -21 c-10 -9 -11 -8 -5 6 3 10 9 15
12 12 3 -3 0 -11 -7 -18z m126 8 c0 -8 -4 -12 -9 -9 -5 3 -6 10 -3 15 9 13 12
11 12 -6z m11 -50 c-3 -3 -9 2 -12 12 -6 14 -5 15 5 6 7 -7 10 -15 7 -18z m97
15 c-3 -5 -11 -10 -16 -10 -6 0 -7 5 -4 10 3 6 11 10 16 10 6 0 7 -4 4 -10z
m682 -193 c3 -5 2 -7 -4 -4 -13 8 -11 -39 2 -50 6 -4 7 -4 3 0 -3 5 -2 21 3
36 10 28 38 37 51 17 6 -8 8 -8 8 1 0 8 81 11 305 12 195 1 305 -3 305 -9 0
-13 -111 -100 -127 -100 -7 0 -13 -4 -13 -8 0 -5 -42 -7 -92 -6 -51 2 -152 3
-225 3 -121 1 -132 2 -127 19 5 15 4 15 -5 1 -16 -25 -153 -26 -171 -2 -12 15
-12 16 0 6 17 -15 34 -17 25 -3 -3 6 1 10 9 10 9 0 16 5 16 11 0 5 5 7 11 4 6
-5 4 -12 -8 -21 -10 -7 -13 -14 -7 -14 6 0 17 6 23 14 8 10 8 16 -3 25 -8 7
-13 24 -11 38 2 25 2 26 -11 8 -10 -13 -11 -22 -3 -32 9 -10 8 -13 -2 -14 -8
-1 -24 -3 -35 -4 -12 -1 -21 3 -20 9 2 16 13 22 23 12 5 -5 2 -6 -6 -1 -10 5
-12 4 -7 -4 4 -6 11 -9 16 -6 11 7 0 45 -14 45 -7 0 -7 3 1 8 19 12 82 12 90
-1z m-847 -72 c11 -13 10 -14 -4 -9 -9 3 -16 10 -16 15 0 13 6 11 20 -6z m90
-30 c0 -1 -15 -2 -32 -2 -26 -1 -29 1 -13 7 17 6 45 3 45 -5z m447 -34 c-1
-15 -4 -17 -14 -9 -7 5 -10 14 -7 19 10 16 23 9 21 -10z m357 -184 c-4 -8 -2
-7 7 1 16 15 163 17 154 2 -4 -6 -11 -8 -16 -5 -5 4 -9 2 -9 -4 0 -7 -42 -27
-80 -36 -3 -1 -12 -4 -20 -8 -36 -14 -46 -13 -65 2 -12 9 -15 10 -7 1 12 -14
18 -39 6 -27 -4 3 -15 2 -26 -4 -24 -13 -39 -2 -18 12 13 9 13 10 0 8 -28 -3
-37 1 -37 16 0 9 6 14 13 11 8 -3 16 -1 19 3 2 5 -5 11 -18 15 -18 5 -19 8 -7
15 21 14 112 12 104 -2z m-709 -9 c5 4 5 2 2 -5 -4 -6 -1 -14 5 -16 8 -3 8 -6
2 -6 -6 -1 -19 9 -30 21 -12 14 -13 18 -3 10 9 -6 20 -8 24 -4z m50 -19 c2 -9
-4 -16 -11 -16 -17 0 -19 17 -1 18 6 0 3 5 -8 10 -19 8 -19 9 -1 6 11 -1 20
-9 21 -18z m98 7 c3 3 13 -8 21 -25 19 -35 19 -41 6 -41 -5 0 -9 6 -7 13 1 6
-3 11 -10 10 -8 -2 -10 4 -6 14 4 11 3 14 -5 9 -7 -4 -12 -2 -12 4 0 6 -4 9
-8 6 -5 -3 -9 1 -9 9 0 10 4 12 12 5 7 -5 14 -7 18 -4z m-198 -5 c3 -5 2 -12
-3 -15 -5 -3 -9 1 -9 9 0 17 3 19 12 6z m-25 -26 c0 -2 -6 -8 -13 -14 -10 -8
-14 -7 -14 2 0 8 6 14 14 14 7 0 13 -1 13 -2z m90 1 c0 -3 -4 -8 -10 -11 -5
-3 -10 -1 -10 4 0 6 5 11 10 11 6 0 10 -2 10 -4z m-30 -32 c0 -2 -9 0 -20 6
-11 6 -20 13 -20 16 0 2 9 0 20 -6 11 -6 20 -13 20 -16z m50 2 c0 -2 -8 -10
-17 -17 -16 -13 -17 -12 -4 4 13 16 21 21 21 13z m45 -27 c1 -13 -2 -16 -9 -9
-14 14 -29 13 -20 -2 4 -7 3 -8 -5 -4 -14 9 -5 26 15 26 9 0 12 5 8 13 -4 6
-3 9 1 4 5 -4 9 -16 10 -28z m-118 15 c-3 -3 -12 -4 -19 -1 -8 3 -5 6 6 6 11
1 17 -2 13 -5z m246 -9 c4 -8 1 -17 -5 -21 -7 -4 -8 -3 -4 4 4 7 2 12 -4 12
-6 0 -8 5 -5 10 8 14 12 13 18 -5z m-98 -4 c3 -5 2 -12 -3 -15 -5 -3 -9 1 -9
9 0 17 3 19 12 6z m55 -17 c0 -2 -7 -4 -15 -4 -8 0 -15 4 -15 10 0 5 7 7 15 4
8 -4 15 -8 15 -10z m346 -282 c-3 -3 -21 -6 -41 -7 -19 0 -38 -5 -42 -9 -4 -4
-3 -7 2 -6 24 5 34 -1 28 -17 -6 -17 -5 -17 14 0 18 15 25 17 43 7 31 -17 70
-22 84 -12 12 10 43 13 66 6 12 -4 12 -7 1 -13 -7 -5 -14 -20 -14 -35 -2 -29
-27 -35 -47 -11 -7 8 -16 12 -21 9 -5 -3 -6 3 -2 12 5 13 3 16 -10 11 -9 -3
-19 -2 -22 3 -4 6 -12 10 -18 10 -7 -1 -2 -9 11 -20 13 -10 25 -28 27 -39 3
-17 -1 -20 -31 -19 -33 1 -74 31 -61 45 4 3 7 1 7 -6 0 -8 5 -9 19 -2 19 11
34 4 25 -10 -2 -4 -12 -6 -22 -3 -14 5 -14 4 -3 -4 10 -7 21 -7 34 -1 26 14 3
42 -27 33 -19 -6 -20 -5 -6 11 12 15 12 17 1 10 -11 -6 -13 -4 -8 9 5 12 3 16
-5 13 -7 -2 -12 -13 -10 -23 2 -12 0 -15 -5 -7 -6 8 -14 9 -23 3 -10 -7 -11
-10 -2 -10 6 0 12 -5 12 -11 0 -5 -4 -8 -9 -5 -11 7 -21 -17 -13 -31 4 -6 15
-9 24 -7 10 1 20 -1 23 -6 3 -5 -3 -7 -12 -5 -10 1 -26 -2 -37 -7 -12 -7 -16
-7 -12 0 7 12 -10 25 -38 29 -11 2 -22 6 -25 10 -3 3 4 3 17 0 12 -3 22 -2 22
1 0 15 -16 29 -37 34 -18 5 -21 2 -18 -21 2 -14 4 -27 4 -28 1 -2 1 -6 0 -9 0
-4 5 -11 13 -16 10 -7 9 -8 -4 -4 -10 3 -18 1 -18 -4 0 -6 -4 -10 -10 -10 -5
0 -6 8 -3 17 5 12 2 15 -10 10 -12 -4 -14 -2 -10 10 4 10 2 14 -5 9 -6 -3 -13
-2 -16 3 -8 13 22 7 36 -7 16 -16 31 -15 21 1 -4 6 -8 17 -9 22 0 6 -2 16 -2
23 -2 10 -6 10 -18 -2 -8 -9 -20 -16 -27 -16 -6 0 -2 7 9 15 10 8 15 15 11 15
-4 0 -3 9 3 19 7 14 6 21 -2 23 -7 3 -6 7 5 11 11 4 17 1 17 -9 0 -14 2 -14
16 0 17 18 44 21 44 6 0 -5 5 -10 10 -10 6 0 9 5 8 11 -2 7 14 13 36 15 22 2
41 6 44 9 3 2 9 2 14 -1 5 -3 7 -8 4 -12z m-476 -8 c0 -8 -19 -13 -24 -6 -3 5
1 9 9 9 8 0 15 -2 15 -3z m40 0 c0 -8 -19 -13 -24 -6 -3 5 1 9 9 9 8 0 15 -2
15 -3z m43 -19 c-3 -9 -8 -14 -10 -11 -3 3 -2 9 2 15 9 16 15 13 8 -4z m47 11
c0 -2 -7 -7 -16 -10 -8 -3 -12 -2 -9 4 6 10 25 14 25 6z m48 -3 c-10 -2 -18
-9 -18 -15 0 -6 -3 -9 -6 -5 -10 10 6 27 24 26 15 -1 15 -2 0 -6z m69 1 c-3
-3 -12 -4 -19 -1 -8 3 -5 6 6 6 11 1 17 -2 13 -5z m-15 -51 c5 -7 5 -14 -2
-18 -6 -4 -10 -3 -9 2 4 22 -3 24 -21 8 -25 -23 -60 -28 -53 -8 4 10 9 11 19
2 11 -9 17 -5 31 20 10 17 20 25 22 18 2 -6 8 -17 13 -24z m-217 -12 c3 -5 2
-12 -3 -15 -5 -3 -9 1 -9 9 0 17 3 19 12 6z m112 -26 c0 -8 -4 -12 -9 -9 -5 3
-6 10 -3 15 9 13 12 11 12 -6z m76 -52 c-7 -2 -19 -2 -25 0 -7 3 -2 5 12 5 14
0 19 -2 13 -5z"/>
<path d="M3223 6115 c0 -8 4 -12 9 -9 4 3 8 0 8 -7 0 -7 2 -10 5 -7 7 7 -5 38
-14 38 -4 0 -8 -7 -8 -15z"/>
<path d="M3295 6110 c3 -5 8 -10 11 -10 2 0 4 5 4 10 0 6 -5 10 -11 10 -5 0
-7 -4 -4 -10z"/>
<path d="M3150 6088 c0 -2 9 -11 20 -21 11 -9 20 -13 20 -7 0 5 -9 14 -20 20
-11 6 -20 9 -20 8z"/>
<path d="M3194 6039 c-9 -15 12 -17 30 -4 17 13 17 14 -4 12 -12 -1 -24 -5
-26 -8z"/>
<path d="M3113 5994 c4 -4 1 -14 -5 -23 -10 -13 -10 -14 2 -4 11 10 18 9 33
-5 19 -16 19 -16 6 5 -7 13 -20 25 -28 28 -9 3 -12 3 -8 -1z"/>
<path d="M3142 5915 c-7 -16 -8 -26 -1 -30 5 -4 9 -3 8 2 -1 4 1 16 6 26 4 10
5 20 3 22 -3 3 -10 -6 -16 -20z"/>
<path d="M3126 5850 c-19 -6 -19 -7 1 -12 25 -7 53 6 31 14 -7 3 -22 2 -32 -2z"/>
<path d="M3110 5821 c0 -6 4 -13 10 -16 6 -3 7 1 4 9 -7 18 -14 21 -14 7z"/>
<path d="M3102 5751 c-11 -6 -10 -10 3 -15 15 -5 15 -9 4 -22 -11 -13 -10 -17
4 -26 10 -5 14 -14 11 -20 -4 -6 -1 -9 5 -7 7 3 13 9 13 14 0 6 4 16 10 23 7
8 7 12 0 12 -6 0 -9 7 -6 15 4 11 2 13 -9 9 -9 -3 -17 1 -19 10 -2 10 -8 13
-16 7z m38 -52 c0 -6 -4 -7 -10 -4 -5 3 -10 11 -10 16 0 6 5 7 10 4 6 -3 10
-11 10 -16z"/>
<path d="M3161 5744 c0 -11 3 -14 6 -6 3 7 2 16 -1 19 -3 4 -6 -2 -5 -13z"/>
<path d="M3021 5717 c-13 -21 -12 -21 5 -5 10 10 16 20 13 22 -3 3 -11 -5 -18
-17z"/>
<path d="M3047 5680 c-15 -16 -23 -31 -18 -34 5 -4 16 0 24 8 12 13 16 12 27
-10 15 -27 18 -28 40 -14 13 9 13 12 -3 21 -9 6 -14 15 -11 21 4 7 2 8 -4 4
-9 -5 -9 -13 -1 -29 9 -20 9 -21 -5 -4 -8 10 -13 29 -11 43 3 30 -3 29 -38 -6z"/>
<path d="M3107 5595 c3 -8 9 -12 14 -9 12 7 11 11 -5 17 -10 4 -13 1 -9 -8z"/>
<path d="M6286 3427 c3 -10 9 -15 12 -12 3 3 0 11 -7 18 -10 9 -11 8 -5 -6z"/>
<path d="M6065 3320 c3 -5 8 -10 11 -10 2 0 4 5 4 10 0 6 -5 10 -11 10 -5 0
-7 -4 -4 -10z"/>
<path d="M6000 3290 c-9 -6 -10 -10 -3 -10 6 0 15 5 18 10 8 12 4 12 -15 0z"/>
<path d="M6106 3258 c3 -5 10 -6 15 -3 13 9 11 12 -6 12 -8 0 -12 -4 -9 -9z"/>
<path d="M6030 3240 c-20 -12 -10 -19 14 -10 11 3 15 9 10 13 -6 3 -16 2 -24
-3z"/>
<path d="M5830 3190 c-9 -6 -10 -10 -3 -10 6 0 15 5 18 10 8 12 4 12 -15 0z"/>
<path d="M5824 3158 c-13 -21 -12 -55 2 -55 16 0 19 13 4 22 -7 4 -7 13 0 26
11 20 6 27 -6 7z"/>
<path d="M5963 3159 c3 -9 0 -23 -6 -30 -10 -11 -9 -11 4 -1 9 6 20 8 25 4 4
-4 2 2 -6 13 -21 30 -24 32 -17 14z"/>
<path d="M5687 3144 c-3 -3 -3 -13 0 -22 5 -11 2 -14 -10 -9 -9 3 -17 2 -17
-3 0 -6 7 -10 15 -10 8 0 15 -4 15 -10 0 -13 -13 -13 -26 0 -5 5 -15 6 -23 1
-10 -6 -5 -11 18 -16 17 -3 31 -11 31 -16 0 -6 9 -7 23 -3 12 4 30 8 39 9 10
1 21 5 25 10 5 4 3 5 -4 1 -6 -3 -14 -2 -18 4 -3 5 -11 10 -16 10 -6 0 -8 -4
-5 -9 3 -5 -3 -11 -14 -14 -11 -3 -23 -1 -26 4 -3 5 3 9 13 9 16 1 16 2 2 10
-10 6 -15 20 -14 35 3 26 2 29 -8 19z"/>
<path d="M5715 3140 c-3 -5 -2 -18 4 -27 7 -14 9 -12 8 10 -2 30 -3 31 -12 17z"/>
<path d="M5846 3127 c3 -10 9 -15 12 -12 3 3 0 11 -7 18 -10 9 -11 8 -5 -6z"/>
<path d="M5584 3114 c18 -17 23 -18 23 -1 0 7 -9 14 -19 14 -16 2 -16 0 -4
-13z"/>
<path d="M5517 3113 c-10 -10 -8 -23 4 -23 5 0 7 5 4 10 -3 6 -1 10 4 10 6 0
11 -4 11 -10 0 -5 5 -10 11 -10 8 0 8 5 -1 15 -14 16 -23 19 -33 8z"/>
<path d="M5765 3100 c-3 -5 -1 -10 4 -10 6 0 11 5 11 10 0 6 -2 10 -4 10 -3 0
-8 -4 -11 -10z"/>
<path d="M5786 3063 c-6 -14 -5 -15 5 -6 7 7 10 15 7 18 -3 3 -9 -2 -12 -12z"/>
<path d="M4260 5415 c0 -2 6 -8 13 -14 10 -8 14 -7 14 2 0 8 -6 14 -14 14 -7
0 -13 -1 -13 -2z"/>
<path d="M3746 6144 c-5 -14 -4 -15 9 -4 17 14 19 20 6 20 -5 0 -12 -7 -15
-16z"/>
<path d="M5484 5611 c-65 -30 -134 -85 -134 -105 0 -18 92 -94 135 -112 39
-16 129 -24 140 -12 12 12 24 89 25 156 0 106 -50 128 -166 73z"/>
<path d="M4830 4631 c0 -6 4 -13 10 -16 6 -3 7 1 4 9 -7 18 -14 21 -14 7z"/>
<path d="M4781 4591 c-8 -5 -9 -11 -3 -15 5 -3 12 1 16 9 6 17 6 18 -13 6z"/>
<path d="M4883 4588 c3 -9 1 -19 -6 -22 -9 -3 -9 -5 0 -5 18 -1 23 13 11 29
-8 12 -9 12 -5 -2z"/>
<path d="M4796 4565 c-11 -8 -15 -15 -9 -15 7 0 15 5 18 10 4 6 11 7 17 4 7
-4 8 -2 4 4 -9 14 -7 15 -30 -3z"/>
<path d="M4863 4485 c-3 -9 -3 -19 1 -22 3 -4 6 1 6 10 0 8 6 18 13 20 9 4 9
6 -1 6 -7 1 -15 -6 -19 -14z"/>
<path d="M4816 4475 c4 -8 12 -15 20 -15 20 0 17 7 -6 20 -16 9 -18 8 -14 -5z"/>
<path d="M4902 4426 c7 -8 15 -12 17 -11 5 6 -10 25 -20 25 -5 0 -4 -6 3 -14z"/>
<path d="M4800 4406 c0 -3 9 -10 20 -16 11 -6 20 -8 20 -6 0 3 -9 10 -20 16
-11 6 -20 8 -20 6z"/>
<path d="M5036 4393 c-6 -14 -5 -15 5 -6 7 7 10 15 7 18 -3 3 -9 -2 -12 -12z"/>
<path d="M4850 4380 c0 -5 9 -8 20 -7 21 1 18 10 -5 13 -8 1 -15 -2 -15 -6z"/>
<path d="M4907 4373 c-10 -10 -8 -23 4 -23 5 0 8 4 4 9 -3 5 3 12 12 14 14 4
15 5 2 6 -9 0 -19 -2 -22 -6z"/>
<path d="M4825 4340 c19 -8 19 -9 -2 -9 -31 -1 -29 -16 1 -16 13 0 22 3 19 8
-7 11 12 8 24 -4 6 -6 9 -18 6 -25 -3 -8 0 -14 7 -14 6 0 9 4 6 9 -4 5 0 11 6
14 16 5 -50 47 -72 46 -10 0 -8 -3 5 -9z"/>
<path d="M4936 4342 c-3 -4 4 -9 15 -9 23 -2 25 3 4 10 -8 4 -16 3 -19 -1z"/>
<path d="M4901 4323 c6 -7 19 -12 28 -12 13 1 13 2 -2 6 -9 2 -15 8 -13 12 3
4 -1 8 -9 8 -11 0 -12 -4 -4 -14z"/>
<path d="M4972 4319 c-12 -5 -22 -11 -22 -13 0 -3 10 -2 23 3 12 4 28 6 35 4
6 -3 12 -1 12 5 0 11 -20 11 -48 1z"/>
<path d="M4915 4291 c3 -5 -1 -12 -7 -14 -10 -4 -10 -6 0 -6 7 -1 10 -5 7 -11
-3 -5 1 -10 11 -10 13 0 14 3 5 14 -9 11 -9 15 1 18 8 3 6 7 -6 11 -9 4 -15 3
-11 -2z"/>
<path d="M4992 4291 c-11 -7 -11 -9 0 -14 9 -3 15 1 15 9 0 8 -1 14 -1 14 -1
0 -7 -4 -14 -9z"/>
<path d="M4865 4256 c17 -13 32 -22 35 -19 3 3 -1 8 -8 10 -6 3 -9 10 -6 15 4
6 2 8 -4 4 -6 -3 -13 -2 -17 4 -3 5 -12 10 -18 10 -7 0 2 -11 18 -24z"/>
<path d="M5043 4269 c9 -6 14 -15 11 -21 -4 -7 -2 -8 5 -4 14 9 -3 36 -23 36
-6 0 -3 -5 7 -11z"/>
<path d="M4815 4260 c3 -5 11 -10 16 -10 6 0 7 5 4 10 -3 6 -11 10 -16 10 -6
0 -7 -4 -4 -10z"/>
<path d="M4720 4242 c0 -7 5 -12 12 -12 6 0 8 -3 5 -6 -4 -4 -13 -1 -21 5 -9
7 -17 8 -20 2 -11 -18 47 -29 79 -15 26 11 27 19 3 15 -5 0 -8 4 -8 10 0 8 -4
8 -13 0 -10 -8 -17 -7 -25 1 -9 9 -12 9 -12 0z m50 -16 c0 -2 -7 -7 -16 -10
-8 -3 -12 -2 -9 4 6 10 25 14 25 6z"/>
<path d="M4957 4239 c7 -7 15 -10 18 -7 3 3 -2 9 -12 12 -14 6 -15 5 -6 -5z"/>
<path d="M4916 4228 c3 -5 10 -6 15 -3 13 9 11 12 -6 12 -8 0 -12 -4 -9 -9z"/>
<path d="M4998 4233 c7 -3 16 -2 19 1 4 3 -2 6 -13 5 -11 0 -14 -3 -6 -6z"/>
<path d="M4947 4209 c10 -12 9 -18 -7 -32 -11 -9 -20 -22 -19 -29 0 -10 2 -10
6 0 3 8 11 4 25 -13 11 -14 28 -25 39 -25 10 0 19 -7 19 -15 0 -8 6 -12 14 -9
8 3 17 1 21 -5 3 -6 10 -11 15 -11 10 0 5 39 -6 49 -4 3 -4 -2 -1 -11 8 -23
-1 -23 -34 0 -14 9 -24 23 -21 30 3 11 0 12 -16 3 -14 -7 -23 -8 -27 -1 -3 5
-1 10 5 10 6 0 18 7 26 15 14 13 14 15 -1 15 -12 0 -15 5 -11 17 4 10 4 14 0
10 -4 -4 -14 -1 -23 6 -14 10 -14 10 -4 -4z m23 -39 c0 -5 -7 -10 -16 -10 -8
0 -12 5 -9 10 3 6 10 10 16 10 5 0 9 -4 9 -10z"/>
<path d="M5028 4213 c7 -3 16 -2 19 1 4 3 -2 6 -13 5 -11 0 -14 -3 -6 -6z"/>
<path d="M5065 4199 c-4 -6 -5 -12 -2 -15 2 -3 7 2 10 11 7 17 1 20 -8 4z"/>
<path d="M5010 4190 c0 -5 5 -10 11 -10 5 0 7 5 4 10 -3 6 -8 10 -11 10 -2 0
-4 -4 -4 -10z"/>
<path d="M5010 4160 c0 -5 5 -10 10 -10 6 0 10 5 10 10 0 6 -4 10 -10 10 -5 0
-10 -4 -10 -10z"/>
<path d="M4775 4130 c3 -5 8 -10 11 -10 2 0 4 5 4 10 0 6 -5 10 -11 10 -5 0
-7 -4 -4 -10z"/>
<path d="M5096 4122 c-3 -5 1 -9 9 -9 8 0 15 4 15 9 0 4 -4 8 -9 8 -6 0 -12
-4 -15 -8z"/>
<path d="M5103 4085 c0 -8 4 -12 9 -9 4 3 8 9 8 15 0 5 -4 9 -8 9 -5 0 -9 -7
-9 -15z"/>
<path d="M4850 4081 c0 -5 5 -13 10 -16 6 -3 10 -2 10 4 0 5 -4 13 -10 16 -5
3 -10 2 -10 -4z"/>
<path d="M5143 4067 c0 -8 6 -14 14 -14 9 0 10 4 2 14 -6 7 -12 13 -14 13 -1
0 -2 -6 -2 -13z"/>
<path d="M5021 4051 c-8 -14 -7 -19 2 -18 31 1 48 -4 42 -12 -3 -5 0 -13 6
-17 8 -4 9 -3 5 4 -4 7 -1 12 6 13 7 0 -2 7 -20 15 -18 8 -30 19 -27 24 3 6 4
10 1 10 -3 0 -10 -8 -15 -19z"/>
<path d="M5106 4017 c3 -10 9 -15 12 -12 3 3 0 11 -7 18 -10 9 -11 8 -5 -6z"/>
<path d="M5000 4005 c7 -9 15 -13 17 -11 7 7 -7 26 -19 26 -6 0 -6 -6 2 -15z"/>
<path d="M5036 4007 c3 -8 -7 -19 -23 -26 l-28 -13 29 -23 c17 -13 33 -22 37
-19 4 2 9 1 12 -3 2 -5 2 -2 1 5 -4 15 8 16 23 1 6 -6 26 -13 45 -15 22 -3 28
-1 19 5 -8 5 -21 6 -30 3 -14 -5 -14 -4 -1 14 9 12 9 15 1 7 -15 -13 -44 -6
-35 8 8 13 -10 11 -24 -3 -9 -9 -15 -9 -24 0 -9 9 -9 15 1 25 11 10 13 10 7 0
-4 -7 -2 -13 3 -13 6 0 11 4 11 10 0 5 6 7 14 4 8 -3 17 -1 20 4 3 5 -6 8 -19
6 -19 -2 -25 2 -25 17 0 10 -4 19 -10 19 -5 0 -7 -6 -4 -13z"/>
<path d="M5118 3983 c7 -3 16 -2 19 1 4 3 -2 6 -13 5 -11 0 -14 -3 -6 -6z"/>
<path d="M5182 3906 c7 -8 15 -12 17 -11 5 6 -10 25 -20 25 -5 0 -4 -6 3 -14z"/>
<path d="M5170 3839 c0 -4 6 -9 13 -12 8 -3 14 0 14 7 0 7 -6 13 -14 13 -7 0
-13 -4 -13 -8z"/>
<path d="M5163 3804 c0 -7 12 -25 27 -39 25 -24 28 -25 41 -8 13 16 12 17 -3
5 -11 -9 -18 -10 -23 -2 -3 5 -1 10 5 10 6 0 8 5 5 11 -4 6 -13 8 -21 5 -8 -3
-11 0 -8 8 3 7 -1 16 -9 19 -7 3 -14 -1 -14 -9z"/>
<path d="M5232 3796 c7 -8 15 -12 17 -11 5 6 -10 25 -20 25 -5 0 -4 -6 3 -14z"/>
<path d="M4400 5161 c0 -10 19 -25 25 -20 1 2 -3 10 -11 17 -8 7 -14 8 -14 3z"/>
<path d="M4445 5142 c2 -2 -3 -11 -11 -19 -8 -8 -11 -20 -7 -26 4 -7 8 -15 8
-19 0 -11 15 -22 15 -11 0 6 7 14 16 17 13 5 14 3 7 -6 -15 -19 -9 -81 8 -86
8 -3 20 -14 28 -24 7 -11 19 -17 27 -14 8 3 14 1 14 -4 0 -6 5 -10 11 -10 8 0
8 4 -1 14 -6 8 -17 13 -24 10 -8 -3 -16 2 -19 10 -8 21 2 48 16 39 6 -4 7 -1
2 7 -6 10 -3 12 13 8 12 -4 20 -2 16 3 -9 15 -29 10 -52 -12 -13 -11 -28 -18
-35 -16 -9 4 -9 6 0 6 8 1 9 10 3 31 -6 20 -5 30 2 30 5 0 8 6 5 14 -3 7 0 20
6 27 10 11 9 11 -5 0 -9 -7 -22 -10 -28 -6 -5 3 -10 1 -10 -5 0 -6 -5 -8 -11
-4 -8 4 -7 9 2 15 7 4 16 6 20 3 4 -2 12 3 19 11 11 13 10 14 -5 9 -11 -5 -16
-4 -12 3 3 5 0 10 -8 10 -8 0 -13 -2 -10 -5z"/>
<path d="M4496 5044 c-5 -14 -4 -15 9 -4 17 14 19 20 6 20 -5 0 -12 -7 -15
-16z"/>
<path d="M4574 5009 c-4 -7 -3 -9 4 -5 5 3 13 0 15 -6 4 -9 6 -10 6 -1 1 17
-16 25 -25 12z"/>
<path d="M4648 5013 c7 -3 16 -2 19 1 4 3 -2 6 -13 5 -11 0 -14 -3 -6 -6z"/>
<path d="M4685 4990 c-3 -6 1 -7 9 -4 18 7 21 14 7 14 -6 0 -13 -4 -16 -10z"/>
<path d="M4590 4965 c-7 -9 -10 -18 -6 -22 3 -3 6 -1 6 6 0 7 4 10 8 7 5 -3 9
1 9 9 0 19 -2 19 -17 0z"/>
<path d="M4660 4970 c8 -5 20 -10 25 -10 6 0 3 5 -5 10 -8 5 -19 10 -25 10 -5
0 -3 -5 5 -10z"/>
<path d="M4733 4955 c0 -8 4 -12 9 -9 5 3 6 10 3 15 -9 13 -12 11 -12 -6z"/>
<path d="M6336 5199 c-34 -27 -37 -88 -4 -119 51 -47 138 -12 138 56 0 71 -77
108 -134 63z"/>
<path d="M6621 5194 c-45 -57 -11 -134 59 -134 73 0 106 82 54 134 -36 36 -85
36 -113 0z"/>
<path d="M3387 5240 c9 -9 9 -17 2 -26 -7 -8 -6 -14 3 -20 7 -4 10 -4 6 1 -4
4 -3 14 2 20 7 9 5 16 -7 26 -15 11 -16 11 -6 -1z"/>
<path d="M3597 5278 c6 -11 31 -10 37 1 3 5 -5 8 -18 7 -13 0 -22 -4 -19 -8z"/>
<path d="M3657 5263 c7 -20 33 -60 33 -52 0 9 -31 69 -35 69 -3 0 -2 -8 2 -17z"/>
<path d="M3650 5174 c-10 -11 -10 -14 1 -14 8 0 20 4 27 9 11 7 11 9 -1 14 -9
3 -21 -1 -27 -9z"/>
<path d="M3995 5220 c-3 -5 -1 -10 4 -10 6 0 11 5 11 10 0 6 -2 10 -4 10 -3 0
-8 -4 -11 -10z"/>
<path d="M4460 4480 c6 -11 16 -20 23 -20 8 0 8 3 -2 9 -7 5 -10 14 -7 20 4 6
0 11 -9 11 -13 0 -14 -4 -5 -20z"/>
<path d="M5599 4132 c-14 -16 -14 -20 0 -32 13 -12 14 -12 8 2 -3 9 -1 18 5
20 6 2 9 10 7 16 -3 9 -9 7 -20 -6z"/>
<path d="M5514 4111 c2 -14 10 -25 20 -27 15 -2 15 0 4 14 -11 14 -10 15 5 9
11 -4 16 -3 12 4 -4 6 -13 8 -20 5 -8 -3 -16 0 -19 7 -2 7 -4 1 -2 -12z"/>
<path d="M5735 4120 c3 -5 8 -10 11 -10 2 0 4 5 4 10 0 6 -5 10 -11 10 -5 0
-7 -4 -4 -10z"/>
<path d="M5570 4090 c0 -5 5 -10 10 -10 6 0 10 5 10 10 0 6 -4 10 -10 10 -5 0
-10 -4 -10 -10z"/>
<path d="M5535 3820 c3 -5 8 -10 11 -10 2 0 4 5 4 10 0 6 -5 10 -11 10 -5 0
-7 -4 -4 -10z"/>
<path d="M5750 3810 c-9 -6 -10 -10 -3 -10 6 0 15 5 18 10 8 12 4 12 -15 0z"/>
<path d="M5622 3775 c0 -16 2 -24 5 -17 7 18 23 4 17 -16 -2 -9 1 -6 8 8 7 14
17 28 23 33 5 4 -2 5 -17 3 -15 -3 -29 1 -32 7 -2 7 -4 -1 -4 -18z"/>
<path d="M5323 3077 c3 -8 -1 -14 -9 -14 -7 0 -10 5 -7 11 4 6 0 5 -9 -1 -8
-7 -17 -10 -20 -7 -3 2 -8 -1 -11 -9 -3 -10 4 -13 27 -12 17 0 36 3 41 6 14 7
35 5 35 -3 0 -5 0 -13 0 -20 0 -6 -7 -3 -15 8 -19 25 -19 11 0 -26 17 -33 21
-36 23 -17 0 6 4 27 7 46 4 19 3 31 -2 28 -5 -3 -22 1 -37 8 -22 12 -27 12
-23 2z"/>
<path d="M5580 3051 c0 -5 -10 -7 -22 -5 -16 3 -18 2 -7 -3 9 -5 15 -16 13
-25 -1 -10 2 -18 7 -18 5 0 9 8 9 18 0 10 5 23 12 30 9 9 9 12 0 12 -7 0 -12
-4 -12 -9z"/>
</g>
</svg>
